<svg xmlns="http://www.w3.org/2000/svg" width="34" height="34" fill="none" viewBox="0 0 34 34"><rect width="22" height="20" x="6" y="7" fill="#45C492" fill-opacity=".09" rx="3"/><path stroke="var(--primary-color-dark)" stroke-linecap="round" stroke-linejoin="round" stroke-width="1.5" d="M2.83325 4.25H11.3333C12.8361 4.25 14.2775 4.84702 15.3402 5.90973C16.4029 6.97243 16.9999 8.41377 16.9999 9.91667V29.75C16.9999 28.6228 16.5522 27.5418 15.7551 26.7448C14.9581 25.9478 13.8771 25.5 12.7499 25.5H2.83325V4.25Z"/><path stroke="var(--primary-color-dark)" stroke-linecap="round" stroke-linejoin="round" stroke-width="1.5" d="M31.1667 4.25H22.6667C21.1638 4.25 19.7224 4.84702 18.6597 5.90973C17.597 6.97243 17 8.41377 17 9.91667V29.75C17 28.6228 17.4478 27.5418 18.2448 26.7448C19.0418 25.9478 20.1228 25.5 21.25 25.5H31.1667V4.25Z"/><rect width="7" height="2" x="21" y="9" fill="var(--primary-color)" opacity=".4"/><rect width="7" height="2" x="21" y="13" fill="var(--primary-color)" opacity=".4"/><rect width="7" height="2" x="21" y="17" fill="var(--primary-color)" opacity=".4"/><rect width="7" height="2" x="6" y="9" fill="var(--primary-color)" opacity=".4"/><rect width="7" height="2" x="6" y="13" fill="var(--primary-color)" opacity=".4"/><rect width="7" height="2" x="6" y="17" fill="var(--primary-color)" opacity=".4"/></svg>