<svg xmlns="http://www.w3.org/2000/svg" xmlns:xlink="http://www.w3.org/1999/xlink" width="200" height="200" version="1.1" viewBox="0 0 200 200"><title>logo</title><desc>Created with Sketch.</desc><g id="Logo" fill="none" fill-rule="evenodd" stroke="none" stroke-width="1"><g transform="translate(-164.000000, -114.000000)"><rect id="Rectangle" width="1920" height="1080" x="0" y="0" fill="#0D2836"/><g id="logo" fill="#FFF" fill-rule="nonzero" transform="translate(164.000000, 114.000000)"><path id="logo-2" d="M102.891204,200 L98.7956423,200 C66.488884,199.638585 27.6774093,194.867913 15.5834551,182.507533 C3.48950083,170.147154 -0.316962853,131.210754 0.0203187392,98.8039116 C0.357600332,66.3970689 5.1759088,27.7498009 17.53487,15.6785532 C29.8938312,3.6073055 68.8498551,-0.295972198 101.204796,0.0172537904 C133.559738,0.330479778 172.226663,5.17343544 184.320617,17.5338148 C196.414572,29.8941942 200.317402,68.8064996 199.98012,101.213342 C199.642838,133.620185 194.82453,172.243359 182.465569,184.338701 C170.636621,195.903968 134.354759,200 102.891204,200 Z M96.8442273,12.0644072 C65.1879407,12.0644072 34.4230412,15.9917792 25.9428183,24.2802207 C18.3057994,31.7735501 12.4756461,63.1925261 12.0660899,99.0207603 C11.6565337,134.848994 16.8843984,166.484819 24.2805019,174.050432 C41.5782292,191.735653 156.326245,193.012651 174.033529,175.712939 L174.033529,175.712939 C181.670548,168.243704 187.500701,136.800633 187.886166,101.020588 C188.27163,65.2405422 183.067857,33.5565288 175.671754,25.9909165 C166.685609,16.7387027 131.24695,12.0644072 96.8442273,12.0644072 Z M71.0421855,76.4925835 L64.8506591,76.4925835 L65.067483,57.0002893 L80.5101616,57.1689495 L80.5101616,67.3126526 C80.4785116,69.7878209 79.4615553,72.1482517 77.6844842,73.8712588 C75.9074131,75.5942659 73.5168615,76.537676 71.0421855,76.4925835 L71.0421855,76.4925835 Z M120.47803,57.602647 L120.213023,83.2148951 C120.146893,88.3325433 115.958744,92.4350311 110.841413,92.394826 L74.0295367,91.9852227 C71.5465945,91.9401108 69.1487563,92.8900979 67.3702801,94.6235191 C65.591804,96.3569403 64.5804516,98.7297772 64.5615606,101.213342 L64.1279129,142.173664 L79.5224084,142.414607 L79.8115069,116.802359 C79.8644765,111.688571 84.0457075,107.582304 89.1590253,107.622428 L125.970902,108.032031 C128.453844,108.077143 130.851682,107.127156 132.630159,105.393735 C134.408635,103.660313 135.419987,101.287477 135.438878,98.8039116 L135.872526,57.84359 L120.47803,57.602647 Z M119.53846,142.848304 L135.00523,143.016964 L135.222054,123.596953 L129.030528,123.596953 C126.572783,123.564814 124.203283,124.512183 122.445026,126.229958 C120.686768,127.947734 119.684312,130.294684 119.658918,132.75279 L119.53846,142.848304 Z"/></g></g></g></svg>